<svg aria-hidden="true" style="position: absolute; width: 0; height: 0; overflow: hidden;" version="1.1" xmlns="http://www.w3.org/2000/svg" xmlns:xlink="http://www.w3.org/1999/xlink">
<defs>
<symbol id="icon-cloud" viewBox="0 0 30 28">
<path d="M30 18c0 3.313-2.688 6-6 6h-17c-3.859 0-7-3.141-7-7 0-2.797 1.656-5.219 4.031-6.328-0.016-0.219-0.031-0.453-0.031-0.672 0-4.422 3.578-8 8-8 3.344 0 6.203 2.047 7.406 4.969 0.688-0.609 1.594-0.969 2.594-0.969 2.203 0 4 1.797 4 4 0 0.797-0.234 1.531-0.641 2.156 2.656 0.625 4.641 3 4.641 5.844z"></path>
</symbol>
<symbol id="icon-desktop" viewBox="0 0 30 28">
<path d="M28 15.5v-13c0-0.266-0.234-0.5-0.5-0.5h-25c-0.266 0-0.5 0.234-0.5 0.5v13c0 0.266 0.234 0.5 0.5 0.5h25c0.266 0 0.5-0.234 0.5-0.5zM30 2.5v17c0 1.375-1.125 2.5-2.5 2.5h-8.5c0 1.328 1 2.453 1 3s-0.453 1-1 1h-8c-0.547 0-1-0.453-1-1 0-0.578 1-1.641 1-3h-8.5c-1.375 0-2.5-1.125-2.5-2.5v-17c0-1.375 1.125-2.5 2.5-2.5h25c1.375 0 2.5 1.125 2.5 2.5z"></path>
</symbol>
<symbol id="icon-file-code-o" viewBox="0 0 24 28">
<path d="M22.937 5.938c0.578 0.578 1.062 1.734 1.062 2.562v18c0 0.828-0.672 1.5-1.5 1.5h-21c-0.828 0-1.5-0.672-1.5-1.5v-25c0-0.828 0.672-1.5 1.5-1.5h14c0.828 0 1.984 0.484 2.562 1.062zM16 2.125v5.875h5.875c-0.094-0.266-0.234-0.531-0.344-0.641l-4.891-4.891c-0.109-0.109-0.375-0.25-0.641-0.344zM22 26v-16h-6.5c-0.828 0-1.5-0.672-1.5-1.5v-6.5h-12v24h20zM7.5 12c0.172-0.219 0.484-0.266 0.703-0.094l0.797 0.594c0.219 0.172 0.266 0.484 0.094 0.703l-2.844 3.797 2.844 3.797c0.172 0.219 0.125 0.531-0.094 0.703l-0.797 0.594c-0.219 0.172-0.531 0.125-0.703-0.094l-3.531-4.703c-0.125-0.172-0.125-0.422 0-0.594zM20.031 16.703c0.125 0.172 0.125 0.422 0 0.594l-3.531 4.703c-0.172 0.219-0.484 0.266-0.703 0.094l-0.797-0.594c-0.219-0.172-0.266-0.484-0.094-0.703l2.844-3.797-2.844-3.797c-0.172-0.219-0.125-0.531 0.094-0.703l0.797-0.594c0.219-0.172 0.531-0.125 0.703 0.094zM10.344 23.906c-0.281-0.047-0.453-0.313-0.406-0.578l2.156-12.984c0.047-0.281 0.313-0.453 0.578-0.406l0.984 0.156c0.281 0.047 0.453 0.313 0.406 0.578l-2.156 12.984c-0.047 0.281-0.313 0.453-0.578 0.406z"></path>
</symbol>
<symbol id="icon-line-chart" viewBox="0 0 32 28">
<path d="M32 24v2h-32v-24h2v22h30zM30 4.5v6.797c0 0.438-0.531 0.672-0.859 0.344l-1.891-1.891-9.891 9.891c-0.203 0.203-0.516 0.203-0.719 0l-3.641-3.641-6.5 6.5-3-3 9.141-9.141c0.203-0.203 0.516-0.203 0.719 0l3.641 3.641 7.25-7.25-1.891-1.891c-0.328-0.328-0.094-0.859 0.344-0.859h6.797c0.281 0 0.5 0.219 0.5 0.5z"></path>
</symbol>
<symbol id="icon-angellist" viewBox="0 0 20 28">
<path d="M14.891 5.906l-1.781 5.125 1.828 0.328c0.469-1.281 2.578-7.047 2.578-8.094 0-0.391-0.125-0.875-0.594-0.875-0.875 0-1.813 2.844-2.031 3.516zM10.219 16.641c0.172 0.453 0.359 0.906 0.516 1.375 0.344-0.391 0.703-0.75 1.109-1.047-0.547-0.109-1.094-0.156-1.625-0.328zM5.656 2.641c0 1.594 1.891 6.563 2.484 8.141 0.219-0.125 0.5-0.156 0.766-0.156 0.375 0 0.797 0.047 1.172 0.078l-1.891-5.484c-0.203-0.594-1.109-3.437-1.922-3.437-0.422 0-0.609 0.5-0.609 0.859zM4.422 14.5c0 1.141 3.063 5.344 4.203 5.344 0.313 0 0.578-0.344 0.578-0.625 0-0.359-0.359-1.25-0.5-1.594-0.406-1.047-1.891-4.281-3.172-4.281-0.422 0-1.109 0.734-1.109 1.156zM1.953 19.734c0 0.562 0.187 1.109 0.391 1.625 1.234 3.047 4.016 4.828 7.266 4.828 2.375 0 4.375-0.906 5.969-2.656 1.687-1.875 2.375-4.188 2.375-6.672 0-0.875 0.016-2.266-0.672-2.891-1.312-1.156-5.766-1.594-7.531-1.594-0.219 0-0.594 0.016-0.766 0.172-0.187 0.078-0.187 0.375-0.187 0.547 0 2.391 5.047 2.172 6.563 2.172 0.297 0 0.438 0.078 0.625 0.297 0.203 0.25 0.266 0.547 0.297 0.859-0.406 0.406-0.969 0.641-1.5 0.844-0.516 0.187-1.016 0.391-1.453 0.719-1.203 0.875-2.391 2.375-2.391 3.922 0 0.969 0.578 1.797 0.578 2.75 0 0.016-0.109 0.359-0.109 0.406-1.781-0.125-2.219-1.891-2.281-3.375-0.187 0.047-0.438 0.031-0.641 0.031 0.031 0.109 0.031 0.219 0.031 0.328 0 1.141-1.016 1.969-2.109 1.969-1.687 0-3.922-1.984-3.922-3.703 0-0.469 0.203-0.734 0.516-1.047 0.313 0.391 0.641 0.781 0.938 1.188 0.453 0.609 1.234 1.625 2.078 1.625 0.219 0 0.641-0.187 0.641-0.453 0-0.703-2.562-4-3.187-4-0.984 0-1.516 1.297-1.516 2.109zM0.172 19.875c0-2.031 0.781-3.375 2.797-3.922-0.172-0.453-0.438-1.141-0.438-1.625 0-1.281 1.578-2.875 2.859-2.875 0.375 0 0.75 0.109 1.094 0.234-0.656-1.859-2.547-7.094-2.547-8.859 0-1.578 0.797-2.828 2.5-2.828 2.187 0 4.672 7.875 5.203 9.438 0.688-1.719 2.844-8.922 5.281-8.922 1.531 0 2.391 1.219 2.391 2.672 0 1.656-1.844 6.813-2.484 8.594 2.625 0.641 3 2.766 3 5.125 0 6.25-3.984 11.094-10.437 11.094-1.188 0-2.359-0.234-3.484-0.656-2.969-1.125-5.734-4.172-5.734-7.469z"></path>
</symbol>
<symbol id="icon-object-ungroup" viewBox="0 0 36 28">
<path d="M36 12h-2v10h2v6h-6v-2h-14v2h-6v-6h2v-2h-6v2h-6v-6h2v-10h-2v-6h6v2h14v-2h6v6h-2v2h6v-2h6v6zM32 8v2h2v-2h-2zM22 2v2h2v-2h-2zM2 2v2h2v-2h-2zM4 20v-2h-2v2h2zM24 18h-2v2h2v-2zM6 18h14v-2h2v-10h-2v-2h-14v2h-2v10h2v2zM14 26v-2h-2v2h2zM34 26v-2h-2v2h2zM32 22v-10h-2v-2h-6v6h2v6h-6v-2h-6v2h2v2h14v-2h2z"></path>
</symbol>
</defs>
</svg>
