<svg aria-hidden="true" style="position: absolute; width: 0; height: 0; overflow: hidden;" version="1.1" xmlns="http://www.w3.org/2000/svg" xmlns:xlink="http://www.w3.org/1999/xlink">
<defs>
<symbol id="icon-user" viewBox="0 0 20 28">
<path d="M20 21.859c0 2.281-1.5 4.141-3.328 4.141h-13.344c-1.828 0-3.328-1.859-3.328-4.141 0-4.109 1.016-8.859 5.109-8.859 1.266 1.234 2.984 2 4.891 2s3.625-0.766 4.891-2c4.094 0 5.109 4.75 5.109 8.859zM16 8c0 3.313-2.688 6-6 6s-6-2.688-6-6 2.688-6 6-6 6 2.688 6 6z"></path>
</symbol>
<symbol id="icon-cog" viewBox="0 0 24 28">
<path d="M16 14c0-2.203-1.797-4-4-4s-4 1.797-4 4 1.797 4 4 4 4-1.797 4-4zM24 12.297v3.469c0 0.234-0.187 0.516-0.438 0.562l-2.891 0.438c-0.172 0.5-0.359 0.969-0.609 1.422 0.531 0.766 1.094 1.453 1.672 2.156 0.094 0.109 0.156 0.25 0.156 0.391s-0.047 0.25-0.141 0.359c-0.375 0.5-2.484 2.797-3.016 2.797-0.141 0-0.281-0.063-0.406-0.141l-2.156-1.687c-0.453 0.234-0.938 0.438-1.422 0.594-0.109 0.953-0.203 1.969-0.453 2.906-0.063 0.25-0.281 0.438-0.562 0.438h-3.469c-0.281 0-0.531-0.203-0.562-0.469l-0.438-2.875c-0.484-0.156-0.953-0.344-1.406-0.578l-2.203 1.672c-0.109 0.094-0.25 0.141-0.391 0.141s-0.281-0.063-0.391-0.172c-0.828-0.75-1.922-1.719-2.578-2.625-0.078-0.109-0.109-0.234-0.109-0.359 0-0.141 0.047-0.25 0.125-0.359 0.531-0.719 1.109-1.406 1.641-2.141-0.266-0.5-0.484-1.016-0.641-1.547l-2.859-0.422c-0.266-0.047-0.453-0.297-0.453-0.562v-3.469c0-0.234 0.187-0.516 0.422-0.562l2.906-0.438c0.156-0.5 0.359-0.969 0.609-1.437-0.531-0.75-1.094-1.453-1.672-2.156-0.094-0.109-0.156-0.234-0.156-0.375s0.063-0.25 0.141-0.359c0.375-0.516 2.484-2.797 3.016-2.797 0.141 0 0.281 0.063 0.406 0.156l2.156 1.672c0.453-0.234 0.938-0.438 1.422-0.594 0.109-0.953 0.203-1.969 0.453-2.906 0.063-0.25 0.281-0.438 0.562-0.438h3.469c0.281 0 0.531 0.203 0.562 0.469l0.438 2.875c0.484 0.156 0.953 0.344 1.406 0.578l2.219-1.672c0.094-0.094 0.234-0.141 0.375-0.141s0.281 0.063 0.391 0.156c0.828 0.766 1.922 1.734 2.578 2.656 0.078 0.094 0.109 0.219 0.109 0.344 0 0.141-0.047 0.25-0.125 0.359-0.531 0.719-1.109 1.406-1.641 2.141 0.266 0.5 0.484 1.016 0.641 1.531l2.859 0.438c0.266 0.047 0.453 0.297 0.453 0.562z"></path>
</symbol>
<symbol id="icon-home" viewBox="0 0 26 28">
<path d="M22 15.5v7.5c0 0.547-0.453 1-1 1h-6v-6h-4v6h-6c-0.547 0-1-0.453-1-1v-7.5c0-0.031 0.016-0.063 0.016-0.094l8.984-7.406 8.984 7.406c0.016 0.031 0.016 0.063 0.016 0.094zM25.484 14.422l-0.969 1.156c-0.078 0.094-0.203 0.156-0.328 0.172h-0.047c-0.125 0-0.234-0.031-0.328-0.109l-10.813-9.016-10.813 9.016c-0.109 0.078-0.234 0.125-0.375 0.109-0.125-0.016-0.25-0.078-0.328-0.172l-0.969-1.156c-0.172-0.203-0.141-0.531 0.063-0.703l11.234-9.359c0.656-0.547 1.719-0.547 2.375 0l3.813 3.187v-3.047c0-0.281 0.219-0.5 0.5-0.5h3c0.281 0 0.5 0.219 0.5 0.5v6.375l3.422 2.844c0.203 0.172 0.234 0.5 0.063 0.703z"></path>
</symbol>
<symbol id="icon-cubes" viewBox="0 0 34 28">
<path d="M10 25.5l6-3v-4.906l-6 2.562v5.344zM9 18.406l6.312-2.703-6.312-2.703-6.312 2.703zM26 25.5l6-3v-4.906l-6 2.562v5.344zM25 18.406l6.312-2.703-6.312-2.703-6.312 2.703zM18 13.828l6-2.578v-4.156l-6 2.562v4.172zM17 7.906l6.891-2.953-6.891-2.953-6.891 2.953zM34 16v6.5c0 0.75-0.422 1.453-1.109 1.781l-7 3.5c-0.281 0.156-0.578 0.219-0.891 0.219s-0.609-0.063-0.891-0.219l-7-3.5c-0.047-0.016-0.078-0.031-0.109-0.063-0.031 0.031-0.063 0.047-0.109 0.063l-7 3.5c-0.281 0.156-0.578 0.219-0.891 0.219s-0.609-0.063-0.891-0.219l-7-3.5c-0.688-0.328-1.109-1.031-1.109-1.781v-6.5c0-0.797 0.484-1.516 1.219-1.844l6.781-2.906v-6.25c0-0.797 0.484-1.516 1.219-1.844l7-3c0.25-0.109 0.516-0.156 0.781-0.156s0.531 0.047 0.781 0.156l7 3c0.734 0.328 1.219 1.047 1.219 1.844v6.25l6.781 2.906c0.75 0.328 1.219 1.047 1.219 1.844z"></path>
</symbol>
<symbol id="icon-wechat" viewBox="0 0 32 28">
<path d="M9.063 7.203c0-0.859-0.562-1.422-1.422-1.422-0.844 0-1.703 0.562-1.703 1.422 0 0.844 0.859 1.406 1.703 1.406 0.859 0 1.422-0.562 1.422-1.406zM20.672 15.125c0-0.562-0.562-1.125-1.422-1.125-0.562 0-1.125 0.562-1.125 1.125 0 0.578 0.562 1.141 1.125 1.141 0.859 0 1.422-0.562 1.422-1.141zM16.984 7.203c0-0.859-0.562-1.422-1.406-1.422-0.859 0-1.703 0.562-1.703 1.422 0 0.844 0.844 1.406 1.703 1.406 0.844 0 1.406-0.562 1.406-1.406zM26.906 15.125c0-0.562-0.578-1.125-1.422-1.125-0.562 0-1.125 0.562-1.125 1.125 0 0.578 0.562 1.141 1.125 1.141 0.844 0 1.422-0.562 1.422-1.141zM22.75 8.922c-0.359-0.047-0.719-0.063-1.094-0.063-5.375 0-9.625 4.016-9.625 8.953 0 0.828 0.125 1.625 0.359 2.375-0.359 0.031-0.703 0.047-1.062 0.047-1.422 0-2.547-0.281-3.969-0.562l-3.953 1.984 1.125-3.406c-2.828-1.984-4.531-4.547-4.531-7.656 0-5.391 5.094-9.625 11.328-9.625 5.563 0 10.453 3.391 11.422 7.953zM32 17.687c0 2.547-1.687 4.813-3.969 6.516l0.859 2.828-3.109-1.703c-1.141 0.281-2.281 0.578-3.406 0.578-5.391 0-9.625-3.687-9.625-8.219s4.234-8.219 9.625-8.219c5.094 0 9.625 3.687 9.625 8.219z"></path>
</symbol>
</defs>
</svg>
